<svg width="191" height="41" viewBox="0 0 191 41" fill="none" xmlns="http://www.w3.org/2000/svg">
<path d="M5.08 13.64C3.8 13.64 2.85333 13.52 2.24 13.28C1.65333 13.0133 1.26667 12.7067 1.08 12.36C0.92 11.9867 0.84 11.6533 0.84 11.36C0.84 10.9867 1.05333 10.56 1.48 10.08C1.90667 9.57333 2.73333 9.2 3.96 8.96C5.18667 8.69333 6.64 8.45333 8.32 8.24C10 8 11.7867 7.8 13.68 7.64C15.5733 7.45333 17.4933 7.29333 19.44 7.16C21.3867 7.02667 23.24 6.93333 25 6.88C26.76 6.8 28.32 6.76 29.68 6.76C31.0933 6.76 32.1867 6.84 32.96 7C33.7333 7.16 34.28 7.36 34.6 7.6C34.9467 7.84 35.1467 8.09333 35.2 8.36C35.28 8.62667 35.32 8.88 35.32 9.12C35.32 9.17333 35.32 9.21333 35.32 9.24C35.32 9.56 35.24 9.90667 35.08 10.28C34.9467 10.6533 34.64 10.9733 34.16 11.24C33.68 11.48 32.96 11.6 32 11.6C31.6533 11.6 30.88 11.6533 29.68 11.76C28.48 11.8667 27.0133 12 25.28 12.16C23.5467 12.32 21.7067 12.48 19.76 12.64C19.4667 13.84 19.1333 15.24 18.76 16.84C18.4133 18.44 18.0533 20.12 17.68 21.88C17.3333 23.64 17 25.3733 16.68 27.08C16.36 28.76 16.0933 30.32 15.88 31.76C15.6667 33.1733 15.52 34.3333 15.44 35.24C15.3333 36.4667 14.9733 37.3333 14.36 37.84C13.7733 38.32 13.1867 38.56 12.6 38.56C12.1733 38.56 11.7467 38.4667 11.32 38.28C10.8933 38.12 10.5467 37.76 10.28 37.2C10.0133 36.6133 9.88 35.7467 9.88 34.6C9.88 33.4267 9.98667 31.9867 10.2 30.28C10.4133 28.5467 10.6933 26.6933 11.04 24.72C11.4133 22.7467 11.8267 20.76 12.28 18.76C12.76 16.76 13.2533 14.8933 13.76 13.16C11.9733 13.2933 10.32 13.4133 8.8 13.52C7.28 13.6 6.04 13.64 5.08 13.64ZM30.1041 39.52C29.2507 39.52 28.4774 39.28 27.7841 38.8C27.0907 38.3467 26.5441 37.7467 26.1441 37C25.7441 36.2267 25.5441 35.4 25.5441 34.52C25.5441 32.8667 25.9041 31.2533 26.6241 29.68C27.3707 28.1067 28.3441 26.6133 29.5441 25.2C30.7441 23.7867 32.0507 22.4933 33.4641 21.32C34.9041 20.12 36.3307 19.0933 37.7441 18.24C39.1841 17.3867 40.4907 16.72 41.6641 16.24C42.8641 15.76 43.7974 15.52 44.4641 15.52C45.2374 15.52 45.8641 15.6933 46.3441 16.04C46.8507 16.36 47.1041 16.8667 47.1041 17.56C47.1041 17.7733 47.0507 17.9467 46.9441 18.08C47.2907 18.16 47.5707 18.36 47.7841 18.68C47.9974 19 48.1041 19.48 48.1041 20.12C48.1041 20.3867 48.0374 21.08 47.9041 22.2C47.7707 23.32 47.6241 24.68 47.4641 26.28C47.3307 27.88 47.2641 29.5467 47.2641 31.28C47.2641 31.5467 47.3041 31.7867 47.3841 32C47.4641 32.1867 47.6374 32.28 47.9041 32.28C48.9707 32.28 50.0507 32.0667 51.1441 31.64C52.2641 31.1867 53.3441 30.64 54.3841 30C55.4507 29.3333 56.4107 28.68 57.2641 28.04C58.1441 27.3733 58.8774 26.8267 59.4641 26.4C60.0774 25.9467 60.4774 25.72 60.6641 25.72C61.5707 25.72 62.0241 26.1733 62.0241 27.08C62.0241 27.32 61.7307 27.8267 61.1441 28.6C60.5841 29.3467 59.8107 30.2133 58.8241 31.2C57.8374 32.16 56.7307 33.12 55.5041 34.08C54.3041 35.0133 53.0507 35.7867 51.7441 36.4C50.4641 37.0133 49.2241 37.32 48.0241 37.32C46.5574 37.32 45.4374 36.9733 44.6641 36.28C43.9174 35.5867 43.3841 34.6533 43.0641 33.48C42.7707 32.28 42.6107 30.9333 42.5841 29.44C41.2241 31.3867 39.8107 33.12 38.3441 34.64C36.9041 36.1333 35.4774 37.32 34.0641 38.2C32.6507 39.08 31.3307 39.52 30.1041 39.52ZM44.2641 19.48C41.6507 20.7333 39.3041 22.1733 37.2241 23.8C35.1441 25.4 33.4907 27.08 32.2641 28.84C31.0641 30.6 30.4641 32.2933 30.4641 33.92C30.4641 34.3733 30.6774 34.6 31.1041 34.6C31.6107 34.6 32.2774 34.3067 33.1041 33.72C33.9574 33.1333 34.8774 32.36 35.8641 31.4C36.8507 30.4133 37.8374 29.32 38.8241 28.12C39.8107 26.8933 40.7307 25.64 41.5841 24.36C42.4374 23.08 43.1174 21.8533 43.6241 20.68C43.8107 20.2533 44.0241 19.8533 44.2641 19.48ZM62.5188 40.04C61.3721 40.04 60.5588 39.88 60.0788 39.56C59.6254 39.24 59.3988 38.7733 59.3988 38.16C59.3988 37.6267 59.5854 37.1733 59.9588 36.8C60.3321 36.4 61.1588 36 62.4388 35.6C63.9321 35.1467 65.3454 34.6267 66.6788 34.04C68.0388 33.4267 69.1454 32.76 69.9988 32.04C70.8788 31.32 71.3188 30.56 71.3188 29.76C71.3188 29.2267 71.1321 28.84 70.7588 28.6C70.4121 28.36 69.9988 28.24 69.5188 28.24C69.1188 28.24 68.5321 28.3067 67.7588 28.44C67.0121 28.5467 66.1854 28.6933 65.2787 28.88C64.3721 29.04 63.4921 29.1867 62.6388 29.32C61.8121 29.4267 61.1054 29.48 60.5188 29.48C59.1321 29.48 58.1054 29.1733 57.4388 28.56C56.7721 27.92 56.4388 27.1067 56.4388 26.12C56.4388 25.5867 56.7188 24.8533 57.2788 23.92C57.8388 22.9867 58.5854 21.96 59.5188 20.84C60.4521 19.72 61.4921 18.6 62.6388 17.48C63.7854 16.36 64.9454 15.3333 66.1188 14.4C67.3188 13.44 68.4521 12.68 69.5188 12.12C70.5854 11.5333 71.4921 11.24 72.2388 11.24C73.0921 11.24 73.7721 11.5067 74.2788 12.04C74.8121 12.5733 75.0788 13.2933 75.0788 14.2C75.0788 14.6267 75.0388 15.0933 74.9588 15.6C74.8788 16.08 74.6788 16.52 74.3588 16.92C74.0388 17.2933 73.5454 17.56 72.8788 17.72C72.2121 17.88 71.3054 17.8533 70.1588 17.64C69.2521 18.3067 68.3054 19.04 67.3188 19.84C66.3588 20.6133 65.4521 21.4267 64.5988 22.28C63.7454 23.1067 63.0388 23.92 62.4788 24.72C63.4654 24.4 64.5854 24.1467 65.8388 23.96C67.0921 23.7467 68.3588 23.64 69.6388 23.64C71.1854 23.64 72.4388 23.92 73.3988 24.48C74.3854 25.0133 75.1054 25.7333 75.5588 26.64C76.0388 27.5467 76.2788 28.5467 76.2788 29.64C76.2788 30.8667 75.8788 32.0933 75.0788 33.32C74.2788 34.5467 73.2121 35.6667 71.8788 36.68C70.5454 37.6933 69.0654 38.5067 67.4388 39.12C65.8121 39.7333 64.1721 40.04 62.5188 40.04ZM102.577 40.92C100.764 40.92 99.0835 40.5333 97.5369 39.76C95.9902 39.0133 94.5769 38.0267 93.2969 36.8C92.0169 35.5467 90.8702 34.1867 89.8569 32.72C88.8702 31.2267 88.0302 29.76 87.3369 28.32C87.0169 29.7867 86.7235 31.04 86.4569 32.08C86.2169 33.12 86.0169 33.9867 85.8569 34.68C85.7235 35.2133 85.5769 35.7333 85.4169 36.24C85.2835 36.7467 85.0702 37.16 84.7769 37.48C84.4835 37.8 84.0702 37.96 83.5369 37.96C82.3902 37.96 81.6569 37.5733 81.3369 36.8C81.0169 36 80.8569 34.9867 80.8569 33.76C80.8569 32.6667 81.0302 31.2267 81.3769 29.44C81.7502 27.6533 82.2435 25.6533 82.8569 23.44C83.4702 21.2267 84.1769 18.9467 84.9769 16.6C85.8035 14.2267 86.6835 11.92 87.6169 9.68C88.5502 7.41333 89.4835 5.36 90.4169 3.52C91.0035 2.4 91.5235 1.69333 91.9769 1.4C92.4302 1.08 92.9635 0.919998 93.5769 0.919998C94.1902 0.919998 94.6569 1.08 94.9769 1.4C95.2969 1.72 95.4569 2.14666 95.4569 2.68C95.4569 3.02666 95.3769 3.37333 95.2169 3.72C95.0569 4.06666 94.8835 4.49333 94.6969 5C94.0835 6.36 93.4435 7.94666 92.7769 9.76C92.1102 11.5467 91.4702 13.4 90.8569 15.32C90.2435 17.2133 89.6969 19.0133 89.2169 20.72C90.5235 19.9467 91.9769 19.2 93.5769 18.48C95.1769 17.7333 96.7902 17.0667 98.4169 16.48C100.07 15.8667 101.617 15.3867 103.057 15.04C104.497 14.6933 105.71 14.52 106.697 14.52C107.47 14.52 108.057 14.7467 108.457 15.2C108.857 15.6533 109.057 16.1467 109.057 16.68C109.057 17.08 108.937 17.48 108.697 17.88C108.457 18.28 107.95 18.6267 107.177 18.92C104.617 19.7733 102.07 20.64 99.5369 21.52C97.0302 22.4 94.2435 23.44 91.1769 24.64C91.8169 25.8933 92.5635 27.1867 93.4169 28.52C94.2702 29.8267 95.1902 31.0533 96.1769 32.2C97.1635 33.32 98.1769 34.24 99.2169 34.96C100.257 35.6533 101.284 36 102.297 36C103.79 36 105.23 35.7067 106.617 35.12C108.004 34.5067 109.284 33.7733 110.457 32.92C111.63 32.04 112.657 31.1867 113.537 30.36C114.444 29.5333 115.15 28.8933 115.657 28.44C115.95 28.1467 116.23 27.9333 116.497 27.8C116.79 27.6667 117.15 27.6 117.577 27.6C118.084 27.6 118.47 27.76 118.737 28.08C119.03 28.3733 119.164 28.76 119.137 29.24C119.11 29.6933 118.884 30.1467 118.457 30.6C118.11 30.9733 117.564 31.5733 116.817 32.4C116.097 33.2 115.217 34.0933 114.177 35.08C113.164 36.04 112.03 36.9733 110.777 37.88C109.55 38.76 108.244 39.48 106.857 40.04C105.47 40.6267 104.044 40.92 102.577 40.92ZM122.152 39.32C120.258 39.32 118.738 38.6533 117.592 37.32C116.445 35.96 115.872 34.1467 115.872 31.88C115.872 31.16 115.965 30.4267 116.152 29.68C116.365 28.9333 116.618 28.24 116.912 27.6C116.752 27.36 116.618 27.0533 116.512 26.68C116.432 26.28 116.392 25.8133 116.392 25.28C116.392 23.5467 116.698 21.96 117.312 20.52C117.925 19.0533 118.752 17.7867 119.792 16.72C120.832 15.6533 121.978 14.8267 123.232 14.24C124.485 13.6533 125.752 13.36 127.032 13.36C129.218 13.36 131.005 14.0933 132.392 15.56C133.805 17.0267 134.512 19.3067 134.512 22.4C134.512 23.9467 134.272 25.52 133.792 27.12C133.312 28.72 132.658 30.2533 131.832 31.72C131.032 33.16 130.098 34.4533 129.032 35.6C127.992 36.7467 126.872 37.6533 125.672 38.32C124.498 38.9867 123.325 39.32 122.152 39.32ZM121.512 25.8C121.645 26.0933 121.712 26.44 121.712 26.84C121.712 27.24 121.632 27.6533 121.472 28.08C121.312 28.5067 121.152 29.08 120.992 29.8C120.832 30.4933 120.752 31.4933 120.752 32.8C120.752 33.1467 120.792 33.44 120.872 33.68C120.978 33.8933 121.205 34 121.552 34C122.458 34 123.312 33.7067 124.112 33.12C124.938 32.5333 125.672 31.76 126.312 30.8C126.978 29.84 127.538 28.7733 127.992 27.6C128.472 26.4 128.832 25.1867 129.072 23.96C129.338 22.7067 129.472 21.5467 129.472 20.48C129.472 19.7867 129.338 19.3067 129.072 19.04C128.805 18.7733 128.338 18.64 127.672 18.64C126.765 18.64 125.832 18.9333 124.872 19.52C123.938 20.08 123.152 20.8533 122.512 21.84C121.872 22.8 121.552 23.8933 121.552 25.12C121.552 25.36 121.538 25.5867 121.512 25.8ZM140.714 39.76C140.047 39.76 139.474 39.52 138.994 39.04C138.54 38.56 138.314 37.8667 138.314 36.96C138.314 36.56 138.367 35.9067 138.474 35C138.607 34.0667 138.767 33 138.954 31.8C139.167 30.6 139.367 29.3467 139.554 28.04C139.767 26.7333 139.94 25.4933 140.074 24.32C140.234 23.1467 140.34 22.1467 140.394 21.32C140.447 20.3067 140.714 19.5867 141.194 19.16C141.674 18.7067 142.247 18.48 142.914 18.48C143.447 18.48 143.927 18.6133 144.354 18.88C144.807 19.12 145.087 19.64 145.194 20.44C145.327 21.2133 145.34 22.3333 145.234 23.8C146.407 21.6667 147.594 19.76 148.794 18.08C150.02 16.4 151.3 15.0667 152.634 14.08C154.847 12.4 156.847 11.56 158.634 11.56C159.647 11.56 160.314 11.7867 160.634 12.24C160.954 12.6933 161.114 13.16 161.114 13.64C161.114 13.96 161.034 14.2533 160.874 14.52C160.74 14.7867 160.447 15.0667 159.994 15.36C159.54 15.6533 158.847 16.04 157.914 16.52C156.66 17.16 155.42 18 154.194 19.04C152.994 20.08 151.794 21.4133 150.594 23.04C149.394 24.6667 148.18 26.6667 146.954 29.04C145.727 31.4133 144.46 34.24 143.154 37.52C142.914 38.4267 142.567 39.0267 142.114 39.32C141.687 39.6133 141.22 39.76 140.714 39.76ZM161.119 38.6C160.373 38.6 159.706 38.3467 159.119 37.84C158.559 37.3333 158.279 36.5067 158.279 35.36C158.279 34.7467 158.359 33.88 158.519 32.76C158.706 31.64 158.946 30.4267 159.239 29.12C159.533 27.7867 159.853 26.4667 160.199 25.16C160.573 23.8533 160.933 22.6933 161.279 21.68C161.626 20.64 161.933 19.8667 162.199 19.36C162.546 18.7467 162.866 18.3733 163.159 18.24C163.479 18.08 163.786 18 164.079 18C164.613 18 165.106 18.16 165.559 18.48C166.039 18.8 166.279 19.5067 166.279 20.6C166.279 21.0267 166.199 21.72 166.039 22.68C165.879 23.6133 165.679 24.7067 165.439 25.96C165.199 27.2133 164.933 28.5067 164.639 29.84C164.373 31.1733 164.106 32.44 163.839 33.64C163.599 34.8133 163.399 35.8 163.239 36.6C163.106 37.2667 162.826 37.76 162.399 38.08C161.999 38.4267 161.573 38.6 161.119 38.6ZM165.719 14.04C164.839 14.04 164.026 13.7867 163.279 13.28C162.533 12.7467 162.159 11.9333 162.159 10.84C162.159 9.93333 162.386 9.2 162.839 8.64C163.293 8.08 163.826 7.68 164.439 7.44C165.079 7.17333 165.639 7.04 166.119 7.04C166.599 7.04 167.133 7.14666 167.719 7.36C168.306 7.54666 168.813 7.90666 169.239 8.44C169.693 8.94667 169.919 9.68 169.919 10.64C169.919 11.28 169.693 11.8667 169.239 12.4C168.786 12.9067 168.226 13.3067 167.559 13.6C166.919 13.8933 166.306 14.04 165.719 14.04ZM178.284 39.32C176.391 39.32 174.871 38.6533 173.724 37.32C172.578 35.96 172.004 34.1467 172.004 31.88C172.004 31.16 172.098 30.4267 172.284 29.68C172.498 28.9333 172.751 28.24 173.044 27.6C172.884 27.36 172.751 27.0533 172.644 26.68C172.564 26.28 172.524 25.8133 172.524 25.28C172.524 23.5467 172.831 21.96 173.444 20.52C174.058 19.0533 174.884 17.7867 175.924 16.72C176.964 15.6533 178.111 14.8267 179.364 14.24C180.618 13.6533 181.884 13.36 183.164 13.36C185.351 13.36 187.138 14.0933 188.524 15.56C189.938 17.0267 190.644 19.3067 190.644 22.4C190.644 23.9467 190.404 25.52 189.924 27.12C189.444 28.72 188.791 30.2533 187.964 31.72C187.164 33.16 186.231 34.4533 185.164 35.6C184.124 36.7467 183.004 37.6533 181.804 38.32C180.631 38.9867 179.458 39.32 178.284 39.32ZM177.644 25.8C177.778 26.0933 177.844 26.44 177.844 26.84C177.844 27.24 177.764 27.6533 177.604 28.08C177.444 28.5067 177.284 29.08 177.124 29.8C176.964 30.4933 176.884 31.4933 176.884 32.8C176.884 33.1467 176.924 33.44 177.004 33.68C177.111 33.8933 177.338 34 177.684 34C178.591 34 179.444 33.7067 180.244 33.12C181.071 32.5333 181.804 31.76 182.444 30.8C183.111 29.84 183.671 28.7733 184.124 27.6C184.604 26.4 184.964 25.1867 185.204 23.96C185.471 22.7067 185.604 21.5467 185.604 20.48C185.604 19.7867 185.471 19.3067 185.204 19.04C184.938 18.7733 184.471 18.64 183.804 18.64C182.898 18.64 181.964 18.9333 181.004 19.52C180.071 20.08 179.284 20.8533 178.644 21.84C178.004 22.8 177.684 23.8933 177.684 25.12C177.684 25.36 177.671 25.5867 177.644 25.8Z" fill="white"/>
</svg>
